<svg height="60" viewBox="0 0 120 59.999998" width="120" xmlns="http://www.w3.org/2000/svg"><path d="m52.847672 29.222821h1.471991c.662704 0 1.260826-.384398 1.253651-1.112192 0-.645789-.533031-1.107067-1.214698-1.096816h-1.511965zm-2.567776-4.156626h4.836753c1.313616 0 3.143352.574035 3.143352 2.624158 0 1.31208-.594536 2.050125-1.726205 2.388395.0533 0 .64579.256265.890779.999435.01025 0 1.383834 3.849108 1.39921 3.859358h-2.851722l-1.014812-2.967554c-.15581-.456153-.494593-.758546-.975345-.758546h-1.07478v3.7261h-2.62723zm44.41593-.240889c2.788168 0 4.920297 1.634973 4.920297 5.197064 0 3.403205-2.142379 5.156061-4.920297 5.156061-2.767667 0-4.894671-1.711854-4.894671-5.156061 0-3.562091 2.111628-5.197064 4.894671-5.197064zm-2.147505 5.197064c0 1.501715.645789 3.208443 2.147505 3.203318 1.506841 0 2.137254-1.701603 2.15263-3.203318 0-1.363333-.645789-3.203319-2.15263-3.203319-1.501716 0-2.147505 1.696478-2.147505 3.203319zm14.248359 4.915171-3.42371-6.488642v6.488642h-2.48577v-9.871346h3.40321l3.24432 6.365634v-6.365634h2.46527v9.871346zm-18.266601-9.707336-.179386 2.055249c-1.353082-.74317-3.920862-.763671-3.920862.404899 0 1.732355 4.576901.48178 4.576901 4.192504 0 3.644095-4.361638 3.685097-7.185684 2.839421l.201425-2.173131c1.77182.825175 4.278096 1.004561 4.278096-.425401 0-1.57347-4.597403-.686791-4.597403-4.213004 0-2.8958 3.582592-3.669722 6.826913-2.680537zm-8.10004 0-.180923 2.055249c-1.353082-.74317-3.920862-.763671-3.920862.404899 0 1.732355 4.578439.48178 4.578439 4.192504 0 3.644095-4.357538 3.685097-7.184659 2.839421l.199887-2.173131c1.771308.825175 4.279634 1.004561 4.279634-.425401 0-1.57347-4.597403-.686791-4.597403-4.213004 0-2.8958 3.581566-3.669722 6.825887-2.680537zm-7.901177.153759-.180411 2.111628c-2.168005-1.255701-5.491769-.855927-5.55071 2.434522-.06048 3.290449 3.422682 3.767102 5.631178 2.649785l.138383 2.157755c-3.898823 1.214699-8.557216 0-8.536715-4.80754.0205-4.689658 4.715284-5.986362 8.497763-4.54615zm-9.791391 9.553577h-2.683612v-9.871346h2.683612zm-14.607131-3.910611h-4.679406v1.839986h4.958735v2.0655h-7.621847v-9.866221h7.544454v2.050124h-4.88083v1.783608h4.679407z" stroke-width=".512531"/><path d="m14.00494 44.798858c-1.548233.556301-3.255171-.241578-3.821353-1.786223-.566186-1.544647.220768-3.256649 1.761762-3.832693l16.543079-6.064916c1.5495-.568527 3.268656.227713 3.837937 1.779474.569726 1.551559-.22729 3.271051-1.779478 3.839065zm0-8.953922c-1.548233.5563-3.255171-.241579-3.821353-1.786223-.566186-1.544648.220768-3.256649 1.761762-3.832693l16.543079-6.064537c1.5495-.569281 3.268656.227712 3.837937 1.779472.569428 1.551245-.227591 3.270244-1.779478 3.837934zm0-8.953922c-1.542525.536481-3.230296-.262952-3.792422-1.796315-.5621214-1.533365.209051-3.234233 1.732831-3.821846l16.543079-6.064916c1.5495-.569281 3.268656.227712 3.837937 1.779474.569428 1.551247-.227591 3.270245-1.779478 3.837935z" stroke-width=".377007"/></svg>